<?xml version="1.0" encoding="utf-8"?>
<!-- Generator: Adobe Illustrator 21.0.0, SVG Export Plug-In . SVG Version: 6.00 Build 0)  -->
<svg version="1.1" id="Layer_1" xmlns="http://www.w3.org/2000/svg" xmlns:xlink="http://www.w3.org/1999/xlink" x="0px" y="0px"
	 viewBox="0 0 73 22.8" style="enable-background:new 0 0 73 22.8;" xml:space="preserve">
<style type="text/css">
	.st0{fill:#E074A0;}
	.st1{fill:#172A38;}
	.st2{fill:none;stroke:#172A38;stroke-width:0.448;stroke-miterlimit:10;}
	.st3{fill:#152C3A;}
</style>
<g>
	<path class="st0" d="M16.3,6.3c-0.8-0.5-1.6-0.7-2.6-0.7s-1.8,0.3-2.6,0.7c0,0-1.2-1.1-2-1.9v10.3H19V3.8C19,3.8,16.3,6.3,16.3,6.3
		z"/>
	<g>
		<path class="st1" d="M19.2,17.5c0,0.1-0.1,0.2-0.2,0.2H13v-0.4h5.9C19.1,17.3,19.2,17.4,19.2,17.5z"/>
		<path class="st1" d="M9.9,17.3h2.6v0.4H9.9c-0.9,0-1.6-0.7-1.6-1.6c0-0.9,0.7-1.6,1.6-1.6h9.1c0.1,0,0.2,0.1,0.2,0.2
			c0,0.1-0.1,0.2-0.2,0.2H9.9c-0.6,0-1.2,0.5-1.2,1.2C8.7,16.8,9.2,17.3,9.9,17.3z"/>
	</g>
	<path class="st2" d="M19.1,16.1"/>
	<polygon class="st1" points="12.5,19.6 11.6,18.9 10.8,19.6 10.8,18.2 10.8,16.7 11.6,16.7 12.5,16.7 12.5,18.2 	"/>
	<g>
		<path class="st1" d="M8.7,16.1H8.2V3.2L11.2,6c0.8-0.4,1.7-0.7,2.5-0.7c0.9,0,1.8,0.2,2.5,0.7l2.9-2.7v11.5h-0.4V4.2l-2.4,2.3
			l-0.1-0.1c-0.7-0.4-1.6-0.7-2.5-0.7S12,6,11.2,6.4l-0.1,0.1L8.7,4.2V16.1z"/>
	</g>
	<g>
		<path class="st1" d="M18.9,16.3H9.8c-0.1,0-0.2-0.1-0.2-0.2c0-0.1,0.1-0.2,0.2-0.2h9.1c0.1,0,0.2,0.1,0.2,0.2
			C19.2,16.2,19.1,16.3,18.9,16.3z"/>
	</g>
	<g>
		<path class="st3" d="M23,8.3h0.7v4h1.2v0.7H23V8.3z"/>
		<path class="st3" d="M25.2,8.3h2v0.7H26v1.2h1v0.7h-1v1.4h1.3v0.7h-2V8.3z"/>
		<path class="st3" d="M27.8,12.6c-0.2-0.2-0.3-0.5-0.3-0.9v-0.3h0.7v0.3c0,0.3,0.1,0.4,0.4,0.4c0.1,0,0.2,0,0.3-0.1
			c0.1-0.1,0.1-0.2,0.1-0.4c0-0.2,0-0.4-0.1-0.5c-0.1-0.1-0.3-0.3-0.5-0.5c-0.3-0.3-0.5-0.5-0.6-0.7c-0.1-0.2-0.2-0.5-0.2-0.7
			c0-0.4,0.1-0.6,0.3-0.8c0.2-0.2,0.5-0.3,0.8-0.3c0.3,0,0.6,0.1,0.8,0.3c0.2,0.2,0.3,0.5,0.3,0.9v0.2H29V9.3C29,9.2,29,9,28.9,9
			c-0.1-0.1-0.2-0.1-0.3-0.1c-0.2,0-0.4,0.1-0.4,0.4c0,0.2,0,0.3,0.1,0.5c0.1,0.1,0.3,0.3,0.5,0.5c0.3,0.3,0.5,0.5,0.6,0.7
			c0.1,0.2,0.2,0.5,0.2,0.8c0,0.4-0.1,0.7-0.3,0.9c-0.2,0.2-0.5,0.3-0.8,0.3C28.2,12.9,28,12.8,27.8,12.6z"/>
		<path class="st0" d="M31.2,8.3h0.7v4h1.2v0.7h-1.9V8.3z"/>
		<path class="st0" d="M33.4,8.3h0.7v4.6h-0.7V8.3z"/>
		<path class="st0" d="M34.5,8.3h0.7l0.5,3.6h0l0.5-3.6h0.7l-0.7,4.6h-1L34.5,8.3z"/>
		<path class="st0" d="M37.2,8.3h1.1c0.4,0,0.6,0.1,0.8,0.3c0.2,0.2,0.3,0.4,0.3,0.8v0.3c0,0.5-0.2,0.8-0.5,0.9v0
			c0.2,0.1,0.3,0.2,0.4,0.3c0.1,0.2,0.1,0.4,0.1,0.7v0.8c0,0.1,0,0.2,0,0.3c0,0.1,0,0.2,0.1,0.2h-0.7c0-0.1,0-0.1-0.1-0.2
			c0-0.1,0-0.2,0-0.4v-0.8c0-0.2,0-0.4-0.1-0.4c-0.1-0.1-0.2-0.1-0.4-0.1h-0.3v2h-0.7V8.3z M38.2,10.2c0.1,0,0.3,0,0.3-0.1
			c0.1-0.1,0.1-0.2,0.1-0.4V9.4c0-0.2,0-0.3-0.1-0.4c-0.1-0.1-0.2-0.1-0.3-0.1h-0.3v1.3H38.2z"/>
		<path class="st0" d="M39.9,8.3h2v0.7h-1.3v1.2h1v0.7h-1v1.4h1.3v0.7h-2V8.3z"/>
		<path class="st0" d="M42.4,12.6c-0.2-0.2-0.3-0.5-0.3-0.9v-0.3h0.7v0.3c0,0.3,0.1,0.4,0.4,0.4c0.1,0,0.2,0,0.3-0.1
			c0.1-0.1,0.1-0.2,0.1-0.4c0-0.2,0-0.4-0.1-0.5c-0.1-0.1-0.3-0.3-0.5-0.5c-0.3-0.3-0.5-0.5-0.6-0.7c-0.1-0.2-0.2-0.5-0.2-0.7
			c0-0.4,0.1-0.6,0.3-0.8c0.2-0.2,0.5-0.3,0.8-0.3c0.3,0,0.6,0.1,0.8,0.3c0.2,0.2,0.3,0.5,0.3,0.9v0.2h-0.7V9.3c0-0.2,0-0.3-0.1-0.3
			s-0.2-0.1-0.3-0.1c-0.2,0-0.4,0.1-0.4,0.4c0,0.2,0,0.3,0.1,0.5c0.1,0.1,0.3,0.3,0.5,0.5c0.3,0.3,0.5,0.5,0.6,0.7
			c0.1,0.2,0.2,0.5,0.2,0.8c0,0.4-0.1,0.7-0.3,0.9c-0.2,0.2-0.5,0.3-0.8,0.3C42.9,12.9,42.6,12.8,42.4,12.6z"/>
		<path class="st3" d="M45.8,8.3h1.1c0.4,0,0.6,0.1,0.8,0.3C47.9,8.7,48,9,48,9.4v2.3c0,0.4-0.1,0.7-0.3,0.9
			c-0.2,0.2-0.5,0.3-0.8,0.3h-1.1V8.3z M46.9,12.2c0.1,0,0.2,0,0.3-0.1c0.1-0.1,0.1-0.2,0.1-0.3V9.4c0-0.2,0-0.3-0.1-0.3
			C47.1,9,47,8.9,46.9,8.9h-0.4v3.3H46.9z"/>
		<path class="st3" d="M48.5,8.3h2v0.7h-1.3v1.2h1v0.7h-1v1.4h1.3v0.7h-2V8.3z"/>
		<path class="st3" d="M51.9,8.3h0.7v1.9l0.9-1.9h0.7L53.4,10l0.9,2.9h-0.8l-0.6-2.1l-0.3,0.6v1.5h-0.7V8.3z"/>
		<path class="st3" d="M54.6,8.3h0.7v4.6h-0.7V8.3z"/>
		<path class="st3" d="M55.9,8.3h0.7v1.9l0.9-1.9h0.7L57.4,10l0.9,2.9h-0.8l-0.6-2.1l-0.3,0.6v1.5h-0.7V8.3z"/>
		<path class="st3" d="M58.8,12.6c-0.2-0.2-0.3-0.5-0.3-0.9V9.4c0-0.4,0.1-0.7,0.3-0.9c0.2-0.2,0.5-0.3,0.8-0.3
			c0.4,0,0.6,0.1,0.8,0.3c0.2,0.2,0.3,0.5,0.3,0.9v2.4c0,0.4-0.1,0.7-0.3,0.9c-0.2,0.2-0.5,0.3-0.8,0.3
			C59.2,12.9,58.9,12.8,58.8,12.6z M60,11.8V9.3c0-0.3-0.1-0.5-0.4-0.5S59.2,9,59.2,9.3v2.5c0,0.3,0.1,0.5,0.4,0.5S60,12.1,60,11.8z
			"/>
		<path class="st3" d="M61.4,12.6c-0.2-0.2-0.3-0.5-0.3-0.9V8.3h0.7v3.6c0,0.2,0,0.3,0.1,0.3c0.1,0.1,0.2,0.1,0.3,0.1
			c0.1,0,0.2,0,0.3-0.1c0.1-0.1,0.1-0.2,0.1-0.3V8.3h0.7v3.5c0,0.4-0.1,0.7-0.3,0.9c-0.2,0.2-0.5,0.3-0.8,0.3S61.6,12.8,61.4,12.6z"
			/>
	</g>
	<g>
		<path class="st3" d="M32.1,16v0.2h-0.9v-1.5h0.2V16H32.1z"/>
		<path class="st3" d="M32.3,14.8C32.3,14.8,32.3,14.7,32.3,14.8c0-0.1,0-0.2,0-0.2c0,0,0.1,0,0.1,0s0.1,0,0.1,0c0,0,0,0.1,0,0.1
			c0,0,0,0.1,0,0.1C32.5,14.8,32.4,14.8,32.3,14.8C32.4,14.8,32.3,14.8,32.3,14.8z M32.3,16.2V15h0.2v1.2H32.3z"/>
		<path class="st3" d="M32.9,16.2V15h0.2v0.1h0c0,0,0.1-0.1,0.1-0.1c0,0,0.1,0,0.2,0c0,0,0,0,0.1,0v0.2c0,0,0,0-0.1,0
			c-0.2,0-0.3,0.1-0.3,0.3v0.7H32.9z"/>
		<path class="st3" d="M34.1,16.2c-0.2,0-0.3-0.1-0.4-0.2c-0.1-0.1-0.1-0.2-0.1-0.4v-0.1c0-0.2,0-0.3,0.1-0.4
			c0.1-0.1,0.2-0.1,0.4-0.1s0.3,0.1,0.4,0.2c0.1,0.1,0.1,0.2,0.1,0.4v0.1h-0.8v0c0,0.1,0,0.2,0.1,0.3C33.9,16,34,16,34.1,16
			c0.1,0,0.1,0,0.2,0s0.1-0.1,0.1-0.1h0.2c0,0.1-0.1,0.2-0.2,0.2C34.3,16.2,34.2,16.2,34.1,16.2z M33.8,15.5h0.6v0
			c0-0.1,0-0.2-0.1-0.2c-0.1-0.1-0.1-0.1-0.2-0.1c-0.1,0-0.2,0-0.2,0.1C33.8,15.3,33.8,15.4,33.8,15.5L33.8,15.5z"/>
		<path class="st3" d="M34.9,16.4h-0.1l0.1-0.5h0.2L34.9,16.4z"/>
		<path class="st3" d="M35.8,15.6v-0.1c0-0.2,0-0.3,0.1-0.4C36,15,36.1,15,36.3,15c0.1,0,0.2,0,0.2,0.1c0.1,0,0.1,0.1,0.2,0.1
			c0,0.1,0.1,0.1,0.1,0.2h-0.2c0-0.1,0-0.1-0.1-0.1s-0.1-0.1-0.2-0.1c-0.1,0-0.2,0-0.2,0.1C36,15.3,36,15.4,36,15.5v0.1
			c0,0.1,0,0.2,0.1,0.3c0.1,0.1,0.1,0.1,0.2,0.1c0.1,0,0.1,0,0.2,0c0,0,0.1-0.1,0.1-0.1h0.2c0,0.1-0.1,0.2-0.1,0.3
			c-0.1,0.1-0.2,0.1-0.3,0.1c-0.1,0-0.2,0-0.3-0.1c-0.1,0-0.1-0.1-0.2-0.2C35.8,15.8,35.8,15.7,35.8,15.6z"/>
		<path class="st3" d="M37.1,15.1h-0.2l0.1-0.5h0.2L37.1,15.1z"/>
		<path class="st3" d="M37.8,16.2c-0.2,0-0.3-0.1-0.4-0.2c-0.1-0.1-0.1-0.2-0.1-0.4v-0.1c0-0.2,0-0.3,0.1-0.4
			c0.1-0.1,0.2-0.1,0.4-0.1s0.3,0.1,0.4,0.2c0.1,0.1,0.1,0.2,0.1,0.4v0.1h-0.8v0c0,0.1,0,0.2,0.1,0.3c0.1,0.1,0.1,0.1,0.2,0.1
			c0.1,0,0.1,0,0.2,0c0,0,0.1-0.1,0.1-0.1h0.2c0,0.1-0.1,0.2-0.2,0.2C38,16.2,37.9,16.2,37.8,16.2z M37.5,15.5h0.6v0
			c0-0.1,0-0.2-0.1-0.2c-0.1-0.1-0.1-0.1-0.2-0.1c-0.1,0-0.2,0-0.2,0.1C37.5,15.3,37.5,15.4,37.5,15.5L37.5,15.5z"/>
		<path class="st3" d="M38.5,15.3c0-0.1,0-0.1,0-0.2c0,0,0.1-0.1,0.1-0.1c0,0,0.1,0,0.1-0.1c0.1,0,0.1,0,0.2,0c0.1,0,0.2,0,0.3,0.1
			c0.1,0.1,0.1,0.2,0.1,0.3h-0.2c0,0,0,0,0-0.1c0,0,0,0,0-0.1c0,0,0,0-0.1,0s-0.1,0-0.1,0c-0.1,0-0.1,0-0.2,0c0,0-0.1,0.1-0.1,0.1
			c0,0,0,0,0,0.1c0,0,0,0,0,0c0,0,0,0,0,0c0,0,0,0,0,0c0,0,0,0,0.1,0c0,0,0,0,0.1,0c0,0,0,0,0.1,0c0.1,0,0.1,0,0.1,0
			c0,0,0.1,0,0.1,0c0,0,0.1,0,0.1,0.1c0,0,0,0.1,0.1,0.1c0,0,0,0.1,0,0.1c0,0.1,0,0.2-0.1,0.3c-0.1,0.1-0.2,0.1-0.3,0.1
			c-0.1,0-0.2,0-0.3-0.1c-0.1-0.1-0.1-0.1-0.1-0.2h0.2c0,0.1,0,0.1,0.1,0.1c0,0,0.1,0,0.2,0c0.1,0,0.2,0,0.2-0.1
			c0,0,0.1-0.1,0.1-0.1c0,0,0,0,0-0.1c0,0,0,0,0,0c0,0,0,0,0,0c0,0,0,0-0.1,0c0,0-0.1,0-0.1,0c0,0,0,0-0.1,0c0,0-0.1,0-0.1,0
			c0,0-0.1,0-0.1,0c0,0-0.1,0-0.1-0.1c0,0,0,0-0.1-0.1C38.5,15.4,38.5,15.4,38.5,15.3z"/>
		<path class="st3" d="M39.8,15v-0.3H40V15h0.2v0.2H40v0.7c0,0.1,0,0.1,0,0.1c0,0,0.1,0,0.2,0c0,0,0,0,0,0v0.2c0,0-0.1,0-0.1,0
			c-0.1,0-0.1,0-0.2,0c0,0-0.1,0-0.1-0.1c0,0,0-0.1-0.1-0.1c0,0,0-0.1,0-0.2v-0.7h-0.2V15H39.8z"/>
		<path class="st3" d="M41.2,16.2L40.8,15H41l0.3,1h0l0.3-1h0.2l-0.4,1.2H41.2z"/>
		<path class="st3" d="M42,14.8C42,14.8,42,14.7,42,14.8c0-0.1,0-0.2,0-0.2c0,0,0.1,0,0.1,0s0.1,0,0.1,0c0,0,0,0.1,0,0.1
			c0,0,0,0.1,0,0.1C42.2,14.8,42.1,14.8,42,14.8C42.1,14.8,42,14.8,42,14.8z M42,16.2V15h0.2v1.2H42z"/>
		<path class="st3" d="M42.8,16.2L42.4,15h0.2l0.3,1h0l0.3-1h0.2L43,16.2H42.8z"/>
		<path class="st3" d="M43.7,16.2V15h0.2v0.1h0c0,0,0.1-0.1,0.1-0.1c0,0,0.1,0,0.2,0c0,0,0,0,0.1,0v0.2c0,0,0,0-0.1,0
			c-0.2,0-0.3,0.1-0.3,0.3v0.7H43.7z"/>
		<path class="st3" d="M44.9,16.2c-0.2,0-0.3-0.1-0.4-0.2c-0.1-0.1-0.1-0.2-0.1-0.4v-0.1c0-0.2,0-0.3,0.1-0.4
			c0.1-0.1,0.2-0.1,0.4-0.1s0.3,0.1,0.4,0.2c0.1,0.1,0.1,0.2,0.1,0.4v0.1h-0.8v0c0,0.1,0,0.2,0.1,0.3c0.1,0.1,0.1,0.1,0.2,0.1
			c0.1,0,0.1,0,0.2,0c0,0,0.1-0.1,0.1-0.1h0.2c0,0.1-0.1,0.2-0.2,0.2C45.1,16.2,45,16.2,44.9,16.2z M44.6,15.5h0.6v0
			c0-0.1,0-0.2-0.1-0.2c-0.1-0.1-0.1-0.1-0.2-0.1c-0.1,0-0.2,0-0.2,0.1C44.6,15.3,44.6,15.4,44.6,15.5L44.6,15.5z"/>
		<path class="st3" d="M47.1,15v1.2h-0.2V16h0c0,0.1-0.1,0.1-0.1,0.1c-0.1,0-0.1,0-0.2,0c-0.1,0-0.2,0-0.3-0.1
			c-0.1-0.1-0.1-0.2-0.1-0.3V15h0.2v0.7c0,0.1,0,0.2,0.1,0.2c0.1,0,0.1,0.1,0.2,0.1c0.1,0,0.2,0,0.2-0.1c0.1-0.1,0.1-0.1,0.1-0.2V15
			H47.1z"/>
		<path class="st3" d="M47.4,16.2V15h0.2v0.2h0c0,0,0.1-0.1,0.1-0.1c0.1,0,0.1-0.1,0.2-0.1c0.1,0,0.2,0,0.3,0.1
			c0.1,0.1,0.1,0.2,0.1,0.3v0.8h-0.2v-0.7c0-0.1,0-0.2-0.1-0.2c-0.1-0.1-0.1-0.1-0.2-0.1c-0.1,0-0.2,0-0.2,0.1
			c0,0.1-0.1,0.1-0.1,0.2v0.7H47.4z"/>
		<path class="st3" d="M49.2,16.2c-0.2,0-0.3-0.1-0.4-0.2c-0.1-0.1-0.1-0.2-0.1-0.4v-0.1c0-0.2,0-0.3,0.1-0.4C48.9,15,49,15,49.2,15
			s0.3,0.1,0.4,0.2c0.1,0.1,0.1,0.2,0.1,0.4v0.1h-0.8v0c0,0.1,0,0.2,0.1,0.3C49,16,49.1,16,49.2,16c0.1,0,0.1,0,0.2,0
			c0,0,0.1-0.1,0.1-0.1h0.2c0,0.1-0.1,0.2-0.2,0.2C49.4,16.2,49.3,16.2,49.2,16.2z M48.9,15.5h0.6v0c0-0.1,0-0.2-0.1-0.2
			c-0.1-0.1-0.1-0.1-0.2-0.1c-0.1,0-0.2,0-0.2,0.1C48.9,15.3,48.9,15.4,48.9,15.5L48.9,15.5z"/>
		<path class="st3" d="M50.8,15c0.1,0,0.1,0,0.2,0.1c0.1,0,0.1,0.1,0.1,0.1h0v-0.6h0.2v1.6h-0.2V16h0c0,0.1-0.1,0.1-0.1,0.1
			c-0.1,0-0.1,0.1-0.2,0.1c-0.2,0-0.3-0.1-0.4-0.2c-0.1-0.1-0.1-0.2-0.1-0.4v-0.1c0-0.2,0-0.3,0.1-0.4C50.6,15,50.7,15,50.8,15z
			 M50.9,15.1c-0.1,0-0.2,0-0.2,0.1c-0.1,0.1-0.1,0.2-0.1,0.3v0.1c0,0.1,0,0.2,0.1,0.3c0.1,0.1,0.1,0.1,0.2,0.1c0.1,0,0.2,0,0.2-0.1
			c0.1-0.1,0.1-0.2,0.1-0.3v-0.1c0-0.1,0-0.2-0.1-0.3C51,15.2,51,15.1,50.9,15.1z"/>
		<path class="st3" d="M52.2,16.2c-0.2,0-0.3-0.1-0.4-0.2c-0.1-0.1-0.1-0.2-0.1-0.4v-0.1c0-0.2,0-0.3,0.1-0.4C51.9,15,52,15,52.2,15
			c0.2,0,0.3,0.1,0.4,0.2c0.1,0.1,0.1,0.2,0.1,0.4v0.1h-0.8v0c0,0.1,0,0.2,0.1,0.3C52,16,52.1,16,52.2,16c0.1,0,0.1,0,0.2,0
			c0,0,0.1-0.1,0.1-0.1h0.2c0,0.1-0.1,0.2-0.2,0.2C52.4,16.2,52.3,16.2,52.2,16.2z M51.9,15.5h0.6v0c0-0.1,0-0.2-0.1-0.2
			c-0.1-0.1-0.1-0.1-0.2-0.1c-0.1,0-0.2,0-0.2,0.1C51.9,15.3,51.9,15.4,51.9,15.5L51.9,15.5z"/>
		<path class="st3" d="M53.9,15v1.2h-0.2V16h0c0,0.1-0.1,0.1-0.1,0.1c-0.1,0-0.1,0-0.2,0c-0.1,0-0.2,0-0.3-0.1
			c-0.1-0.1-0.1-0.2-0.1-0.3V15h0.2v0.7c0,0.1,0,0.2,0.1,0.2c0.1,0,0.1,0.1,0.2,0.1c0.1,0,0.2,0,0.2-0.1c0.1-0.1,0.1-0.1,0.1-0.2V15
			H53.9z"/>
		<path class="st3" d="M54.9,16.2l-0.3-0.4h0l-0.3,0.4h-0.2l0.4-0.6L54.1,15h0.2l0.3,0.4h0l0.3-0.4h0.2l-0.4,0.6l0.4,0.6H54.9z"/>
		<path class="st3" d="M55.4,14.8C55.3,14.8,55.3,14.7,55.4,14.8c0-0.1,0-0.2,0-0.2c0,0,0.1,0,0.1,0c0,0,0.1,0,0.1,0
			c0,0,0,0.1,0,0.1c0,0,0,0.1,0,0.1C55.5,14.8,55.5,14.8,55.4,14.8C55.4,14.8,55.4,14.8,55.4,14.8z M55.4,16.2V15h0.2v1.2H55.4z"/>
		<path class="st3" d="M56.4,16.2c-0.2,0-0.3-0.1-0.4-0.2c-0.1-0.1-0.1-0.2-0.1-0.4v-0.1c0-0.2,0-0.3,0.1-0.4
			c0.1-0.1,0.2-0.1,0.4-0.1s0.3,0.1,0.4,0.2c0.1,0.1,0.1,0.2,0.1,0.4v0.1h-0.8v0c0,0.1,0,0.2,0.1,0.3c0.1,0.1,0.1,0.1,0.2,0.1
			c0.1,0,0.1,0,0.2,0c0,0,0.1-0.1,0.1-0.1h0.2c0,0.1-0.1,0.2-0.2,0.2C56.6,16.2,56.5,16.2,56.4,16.2z M56.4,14.8h-0.1L56,14.5h0.2
			L56.4,14.8z M56.1,15.5h0.6v0c0-0.1,0-0.2-0.1-0.2c-0.1-0.1-0.1-0.1-0.2-0.1c-0.1,0-0.2,0-0.2,0.1C56.1,15.3,56.1,15.4,56.1,15.5
			L56.1,15.5z"/>
		<path class="st3" d="M57.1,16.2V15h0.2v0.1h0c0,0,0.1-0.1,0.1-0.1c0.1,0,0.1,0,0.2,0c0.2,0,0.3,0.1,0.3,0.2h0
			c0-0.1,0.1-0.1,0.1-0.1c0.1,0,0.1-0.1,0.2-0.1c0.1,0,0.2,0,0.3,0.1s0.1,0.2,0.1,0.3v0.8h-0.2v-0.8c0-0.1,0-0.1-0.1-0.2
			c0,0-0.1-0.1-0.2-0.1s-0.1,0-0.2,0.1c0,0.1-0.1,0.1-0.1,0.2v0.7h-0.2v-0.7c0-0.1,0-0.2-0.1-0.2c0,0-0.1-0.1-0.2-0.1
			c-0.1,0-0.1,0-0.2,0.1c0,0-0.1,0.1-0.1,0.2v0.8H57.1z"/>
		<path class="st3" d="M59.5,16.2c-0.2,0-0.3-0.1-0.4-0.2c-0.1-0.1-0.1-0.2-0.1-0.4v-0.1c0-0.2,0-0.3,0.1-0.4
			c0.1-0.1,0.2-0.1,0.4-0.1s0.3,0.1,0.4,0.2c0.1,0.1,0.1,0.2,0.1,0.4v0.1h-0.8v0c0,0.1,0,0.2,0.1,0.3c0.1,0.1,0.1,0.1,0.2,0.1
			c0.1,0,0.1,0,0.2,0c0,0,0.1-0.1,0.1-0.1H60c0,0.1-0.1,0.2-0.2,0.2C59.8,16.2,59.7,16.2,59.5,16.2z M59.2,15.5h0.6v0
			c0-0.1,0-0.2-0.1-0.2c-0.1-0.1-0.1-0.1-0.2-0.1c-0.1,0-0.2,0-0.2,0.1C59.3,15.3,59.2,15.4,59.2,15.5L59.2,15.5z"/>
		<path class="st3" d="M61,16.2L60.6,15h0.2l0.3,1h0l0.3-1h0.2l-0.4,1.2H61z"/>
		<path class="st3" d="M61.8,14.8C61.8,14.8,61.8,14.7,61.8,14.8c0-0.1,0-0.2,0-0.2c0,0,0.1,0,0.1,0s0.1,0,0.1,0c0,0,0,0.1,0,0.1
			c0,0,0,0.1,0,0.1C62,14.8,62,14.8,61.8,14.8C61.9,14.8,61.9,14.8,61.8,14.8z M61.8,16.2V15H62v1.2H61.8z"/>
		<path class="st3" d="M62.8,16.2c-0.2,0-0.3-0.1-0.4-0.2c-0.1-0.1-0.1-0.2-0.1-0.4v-0.1c0-0.2,0-0.3,0.1-0.4
			c0.1-0.1,0.2-0.1,0.4-0.1s0.3,0.1,0.4,0.2c0.1,0.1,0.1,0.2,0.1,0.4v0.1h-0.8v0c0,0.1,0,0.2,0.1,0.3c0.1,0.1,0.1,0.1,0.2,0.1
			c0.1,0,0.1,0,0.2,0c0,0,0.1-0.1,0.1-0.1h0.2c0,0.1-0.1,0.2-0.2,0.2C63.1,16.2,63,16.2,62.8,16.2z M62.5,15.5h0.6v0
			c0-0.1,0-0.2-0.1-0.2c-0.1-0.1-0.1-0.1-0.2-0.1c-0.1,0-0.2,0-0.2,0.1C62.6,15.3,62.5,15.4,62.5,15.5L62.5,15.5z"/>
	</g>
</g>
</svg>
